<svg xmlns="http://www.w3.org/2000/svg" width="299.492" height="299.492" viewBox="0 0 299.492 299.492">
  <g id="Group_29" data-name="Group 29" transform="translate(-731 -71)">
    <path id="Path_21" data-name="Path 21" d="M149.746,0A149.746,149.746,0,1,1,0,149.746,149.746,149.746,0,0,1,149.746,0Z" transform="translate(731 71)" fill="#614c3f"/>
    <path id="Union_1" data-name="Union 1" d="M140.131,246.463c-.655-2.121-5.619-17.4-16.2-28.677-37.883-40.362-79.976-57.958-103.216-88.145C-29.8,64.023,21.36.083,75.039,0c43.548-.067,63.031,28.347,64.969,31.351,1.938-3,21.421-31.418,64.969-31.351C258.657.083,309.82,64.023,259.3,129.641c-23.24,30.187-65.333,47.782-103.216,88.145-10.726,11.428-15.416,26.825-15.9,28.489v.1s-.026.1-.044.1S140.134,246.471,140.131,246.463Z" transform="translate(740.737 118.723)" fill="#ece0d1"/>
    <g id="Group_18" data-name="Group 18" transform="translate(754.165 153.514)">
      <path id="Path_19" data-name="Path 19" d="M850.855,267.317H643.294a11.366,11.366,0,0,0-11.333,11.333h0a11.366,11.366,0,0,0,11.333,11.333h73.169a6.421,6.421,0,0,1,6.163,8.224l-27.994,95.7c-1.846,6.311,2.239,12.8,9.124,14.49h0c6.885,1.692,13.963-2.052,15.809-8.363l30.208-103.27a9.427,9.427,0,0,1,9.048-6.78h92.033a11.366,11.366,0,0,0,11.333-11.333h0A11.366,11.366,0,0,0,850.855,267.317Z" transform="translate(-631.961 -267.317)" fill="#614c3f"/>
      <path id="Path_20" data-name="Path 20" d="M1049.533,350.768H975.906a11.091,11.091,0,0,0-5.885,1.682,13.012,13.012,0,0,0-6.188,7.993L940.4,448.022a34.357,34.357,0,0,0-.449,5.87h0a11.285,11.285,0,0,0,11.228,11.341H1024.8a11.285,11.285,0,0,0,11.228-11.341h0a11.285,11.285,0,0,0-11.228-11.341H974.384a4.307,4.307,0,0,1-4.125-5.443l15.553-58.118a7.436,7.436,0,0,1,7.166-5.541h56.556a11.285,11.285,0,0,0,11.228-11.341h0A11.285,11.285,0,0,0,1049.533,350.768Z" transform="translate(-840.225 -323.747)" fill="#614c3f"/>
    </g>
  </g>
</svg>
