<?xml version="1.0" encoding="utf-8"?>
<!-- Generator: Adobe Illustrator 25.0.0, SVG Export Plug-In . SVG Version: 6.00 Build 0)  -->
<svg version="1.1" id="圖層_1" xmlns="http://www.w3.org/2000/svg" xmlns:xlink="http://www.w3.org/1999/xlink" x="0px" y="0px"
	 viewBox="0 0 60 55" style="enable-background:new 0 0 60 55;" xml:space="preserve">
<style type="text/css">
	.st0{fill:#614C3F;}
</style>
<g id="Group_44" transform="translate(-108 -6339.045)">
	<g id="Group_32" transform="translate(123.151 6344.286)">
		<path id="Path_29" class="st0" d="M23.16,12.92h0.68c4.19,0,4.49-0.49,2.42-4.18c-0.39-0.69-0.78-2-1.72-1.51
			c-1.22,0.64,0.15,1.41,0.43,2.07c0.66,1.57,0.5,1.96-1.16,2.06c-1.94,0.11-3.7,0.03-5.4-1.41c-2.54-1.99-6.18-1.75-8.44,0.55
			c-2.28,2.27-2.55,5.87-0.64,8.45c0.5,0.71,1.17,1.89,2.04,1.27c0.8-0.57-0.3-1.35-0.74-1.95c-1.51-2.06-1.34-4.9,0.42-6.76
			c1.66-1.64,4.82-2.09,6.39-0.37C19.15,13.01,21.04,13.05,23.16,12.92z M1.21,14.71c0.01,5.93,3.67,11.19,8.66,12.87
			c0.54,0.18,1.3,0.73,1.59-0.18c0.24-0.76-0.53-1.05-1.12-1.25c-6.39-2.11-10-10.45-5.79-17.47c0.29-0.48,0.83-1.01,0.13-1.47
			C4.01,6.78,3.64,7.42,3.33,7.88C2.04,9.93,1.31,12.28,1.21,14.71L1.21,14.71z M23.26,17.26c-0.74,0.04-1.48,0.04-2.22-0.02
			c-1.55-0.2-2.43,0.76-3.27,1.79c-0.35,0.33-0.38,0.89-0.06,1.25c0.37,0.39,0.8,0.09,1.04-0.2c1.28-1.58,3.05-1.31,4.74-1.28
			c2.05,0.04,2.35,0.58,1.27,2.37c-1.34,2.36-3.49,4.15-6.05,5.05c-0.54,0.19-1.23,0.45-0.98,1.15c0.27,0.76,0.97,0.39,1.47,0.2
			c3.89-1.37,6.89-4.54,8.05-8.5c0.41-1.25-0.12-1.84-1.42-1.81C24.98,17.28,24.12,17.26,23.26,17.26L23.26,17.26z M14.93,1.73
			c-2.67,0.01-5.28,0.74-7.56,2.11C6.92,4.13,6.25,4.48,6.65,5.17c0.42,0.72,0.97,0.25,1.46-0.03C8.69,4.78,9.3,4.46,9.93,4.2
			c1.06-0.37,2.18-1.05,3.28-0.57c1.03,0.44,0.71,1.61,0.65,2.47c-0.03,0.45-0.06,1.86,0.71,1.85c1.04-0.01,0.68-1.38,0.67-1.82
			c-0.01-0.4-0.05-0.76-0.04-1.15c0.04-1.28,0.68-1.7,1.9-1.41c1.39,0.29,2.73,0.82,3.95,1.55c0.47,0.3,1.05,0.78,1.46,0.07
			c0.4-0.68-0.3-1.02-0.76-1.3C19.71,2.59,17.36,1.85,14.93,1.73L14.93,1.73z M13.83,19.86c0,2.22-0.02,4.44,0.01,6.66
			c0.01,0.57-0.24,1.5,0.61,1.53c0.87,0.03,0.69-0.9,0.7-1.47c0.04-2.45,0-4.9,0.03-7.35c0.02-1.82,0.07-3.64,0.11-5.46
			c0.03-1.12,0.5-2.75-0.66-2.68c-0.94,0.06-0.77,1.99-0.79,2.61C13.8,15.76,13.83,17.81,13.83,19.86L13.83,19.86z"/>
	</g>
	<g id="Group_33" transform="translate(108 6339.045)">
		<path id="Path_30" class="st0" d="M24.21,37.77c1.75,5.17-1,9.45-2.02,13.99c-0.17,0.76-0.72,0.99-1.52,0.98
			c-4.48-0.04-8.96-0.03-13.44-0.01c-1.68,0.01-1.25-0.75-0.65-1.63c2.05-3,3.34-6.19,1.52-9.73c-1.33-2.59-2.33-5.32-3.55-7.95
			c-0.49-1.37-1.22-2.64-2.16-3.76c-1.5-1.48-1.43-3.08-0.62-4.75c1.42-2.93,2.25-6.08,3.45-9.08C7.6,9.84,11.49,5.18,17.78,2.98
			C18.9,2.7,20,2.34,21.08,1.9c0.63-0.36,1.42-0.14,1.79,0.48c0.56,0.92,1.18,0.72,1.99,0.49c3.09-0.86,6.36-0.86,9.45,0
			c0.74,0.2,1.43,0.62,1.89-0.54c0.34-0.55,1.04-0.77,1.64-0.52c3.32,0.96,6.48,2.4,9.39,4.28c1.53,1.03,2.38,2.65,3.41,4.1
			c0.49,0.69,0.91,1.05,1.78,0.63c0.43-0.13,0.87-0.21,1.31-0.24c2.13-0.47,3.24,0.26,3.87,2.56c0.5,1.83-0.18,3.11-2.14,3.66
			c-1.03,0.29-1.03,0.79-0.75,1.59c0.72,2.23,1.58,4.41,2.57,6.53c0.9,1.42,0.72,3.27-0.44,4.48c-1.08,1.36-1.94,2.88-2.54,4.51
			c-1.11,2.5-2.06,5.06-3.32,7.5c-1.54,2.97-0.94,5.82,0.86,8.55c0.49,0.75,1.6,1.6,1.11,2.42c-0.47,0.79-1.76,0.29-2.67,0.3
			c-3.92,0.04-7.84-0.01-11.76,0.03c-0.78,0.14-1.52-0.39-1.66-1.17c0-0.01,0-0.02-0.01-0.03c-0.95-2.81-1.75-5.66-2.4-8.55
			c-0.39-1.41-0.29-2.92,0.28-4.27c0.3-0.62,0.26-1.01-0.58-0.78C30.86,38.74,27.44,38.69,24.21,37.77z M9.01,15.61
			c0.17,0.29,0.31,0.52,0.44,0.75c1.21,2.1,0.85,3.34-1.31,4.42c-0.26,0.13-0.53,0.22-0.57,0.53c-0.27,1.8-1.3,3.48-0.22,5.45
			c1.41,2.55,1.9,5.51,1.4,8.38c-0.55,3.63,2.28,7.15,5.86,7.98c0.6,0.14,1.19,0.33,1.78,0.5c0.36,0.11,0.9,0.15,0.79,0.67
			c-0.12,0.56-0.64,0.31-0.98,0.22c-0.87-0.22-1.72-0.48-2.58-0.73c-3.49-1.01-6.55-5.59-5.81-9.07c0.45-2.47,0.13-5.02-0.92-7.3
			c-0.45-1.13-1.22-2.35-0.75-3.69c0.75-2.12,0.44-4.32,0.53-6.49c0.1-2.37,0.65-2.83,3-2.5c0.49,0.09,0.97,0.28,1.39,0.55
			c0.61,0.34,0.95,0.3,1.21-0.49c1.08-3.38,3.15-6.36,5.94-8.55c0.45-0.35,0.71-0.89,0.7-1.46c0.01-0.89-0.27-1.21-1.22-0.87
			c-5.58,2.05-9.07,6.3-11.35,11.46c-1.48,3.35-2.3,7-3.89,10.35c-0.54,0.96-0.4,2.16,0.34,2.97c1.19,1.56,2.17,3.27,2.91,5.08
			c1.01,2.18,1.69,4.48,2.88,6.6c1.74,2.78,1.73,6.32-0.03,9.09c-0.42,0.7-0.8,1.42-1.3,2.32c4.55,0,8.85-0.01,13.16,0.01
			c0.72,0,0.97-0.42,1.14-1c0.73-2.52,1.6-5.01,2.18-7.56c0.81-3.55-0.13-5.3-3.18-7.17c-6.71-4.1-9.75-10.08-8.95-17.95
			C11.76,16.47,11.34,16.02,9.01,15.61L9.01,15.61z M50.34,15.53c-2.72,0.55-2.87,0.72-2.73,2.77c0.52,7.97-2.62,14.02-9.54,18.03
			c-2.36,1.16-3.55,3.84-2.81,6.37c0.54,2.58,1.48,5.04,2.09,7.58c0.32,1.32,0.98,1.52,2.11,1.51c3.58-0.04,7.17-0.04,10.76,0.01
			c1.31,0.02,1.64-0.26,0.82-1.45c-1.93-2.82-2.56-5.89-0.99-9.05c1.22-2.46,2.23-5,3.31-7.51c0.79-2.04,1.89-3.94,3.26-5.64
			c0.45-0.53,0.52-1.27,0.19-1.88c-1.06-2.7-2.11-5.41-3.16-8.12c-0.12-0.32-0.21-0.68-0.66-0.59c-0.35,0.06-0.59,0.38-0.55,0.73
			c0.02,1.56-0.24,3.18,0.35,4.66c0.45,1.16,0.37,2.46-0.22,3.55c-1.19,2.64-1.68,5.55-1.43,8.44c0.39,5.89-3.62,9.05-8.75,9.62
			c-0.22,0.02-0.46,0-0.54-0.27c-0.06-0.23,0.08-0.46,0.31-0.52c0,0,0.01,0,0.01,0c0.78-0.29,1.59-0.52,2.4-0.71
			c3.17-0.64,6.4-4.59,5.79-7.73c-0.51-2.99-0.08-6.06,1.24-8.79c1.08-2.57,0.49-4.51-1.68-6.16c-0.5-0.36-0.83-0.92-0.9-1.54
			C48.83,17.59,49.33,16.32,50.34,15.53L50.34,15.53z M29.42,37.58c9.54,0.04,17.31-7.66,17.37-17.2
			C46.81,10.9,39.14,3.2,29.65,3.18c-0.06,0-0.12,0-0.18,0c-9.5,0.01-17.19,7.71-17.19,17.21c0,0.04,0,0.08,0,0.12
			C12.39,29.93,20.02,37.51,29.42,37.58L29.42,37.58z M46.53,12.44c0.86-0.23,1.71-0.53,2.58-0.68c1.13-0.19,0.99-0.61,0.53-1.45
			c-1.83-3.38-5.12-4.8-8.29-6.4c-0.96-0.48-1.21,0.07-1.29,0.85c0,0.63,0.33,1.21,0.87,1.53c1.83,1.47,3.36,3.28,4.49,5.34
			C45.67,12.07,45.87,12.55,46.53,12.44L46.53,12.44z M56.74,14.07c-0.01-2.28-1.13-3.11-3.36-2.52c-1.89,0.5-3.78,1.02-5.68,1.47
			c-0.91,0.21-1.36,0.5-1.02,1.58c0.4,1.3,1.03,0.7,1.74,0.43c1.16-0.43,2.94-0.99,3.39,0.12c1.06,2.6,2.48,0.83,3.73,0.67
			C56.46,15.71,56.78,14.96,56.74,14.07L56.74,14.07z M51.61,18.13c-0.32-0.48,0.43-1.59-0.69-1.61c-0.75-0.02-1.09,0.9-1.07,1.64
			c0.02,0.7,0.16,1.6,1.07,1.59C52.01,19.73,51.39,18.76,51.61,18.13L51.61,18.13z M7.52,18.03c0.17,0.64-0.43,1.56,0.56,1.72
			c0.85,0.14,1.05-0.65,1.11-1.34c0.08-0.86-0.26-1.8-1.04-1.85C7.16,16.48,7.9,17.59,7.52,18.03L7.52,18.03z M38.6,4.7
			c0.44-0.08,0.69-0.29,0.65-0.66c-0.08-0.98-0.95-1.11-1.64-1.35c-0.39-0.14-0.9,0.13-0.83,0.55C36.95,4.24,38.07,4.1,38.6,4.7
			L38.6,4.7z M20.54,4.64c0.49-0.48,1.59-0.39,1.7-1.42c0.03-0.3-0.19-0.56-0.49-0.59c-0.11-0.01-0.22,0.01-0.32,0.07
			c-0.64,0.31-1.59,0.34-1.59,1.39C19.83,4.45,19.97,4.74,20.54,4.64L20.54,4.64z"/>
	</g>
</g>
</svg>
